<svg xmlns="http://www.w3.org/2000/svg" width="30" height="24" viewBox="0 0 30 24">
  <path id="filter_24" d="M20,8a4,4,0,0,0-8,0,4.079,4.079,0,0,0,3,3.9V28h2V11.9A4.079,4.079,0,0,0,20,8Zm-4,2a2,2,0,1,1,2-2A2.006,2.006,0,0,1,16,10ZM9,15.7a4.079,4.079,0,0,0-3-3.9V4H4v7.8a3.99,3.99,0,0,0-3,3.9,4.079,4.079,0,0,0,3,3.9V28H6V19.5A3.961,3.961,0,0,0,9,15.7Zm-4,2a2,2,0,1,1,2-2A2.006,2.006,0,0,1,5,17.7Zm26,2a4.079,4.079,0,0,0-3-3.9V4H26V15.8a3.99,3.99,0,0,0-3,3.9,4.079,4.079,0,0,0,3,3.9V28h2V23.5A3.961,3.961,0,0,0,31,19.7Zm-4,2a2,2,0,1,1,2-2A2.006,2.006,0,0,1,27,21.7Z" transform="translate(-1 -4)" fill="#fff"/>
</svg>
