<svg id="логотип" xmlns="http://www.w3.org/2000/svg" width="158" height="43.624" viewBox="0 0 158 43.624">
  <g id="mf_logo_full">
    <path id="Контур_1" data-name="Контур 1" d="M44.314,33.791a2.727,2.727,0,1,1,0-5.453A2.7,2.7,0,0,1,47,31.1a2.732,2.732,0,0,1-2.69,2.69m-6.4,0a2.684,2.684,0,0,1-2.69-2.69,2.727,2.727,0,1,1,5.453,0,2.8,2.8,0,0,1-2.763,2.69m-6.4,0a2.727,2.727,0,1,1,0-5.453,2.727,2.727,0,0,1,0,5.453M31.953.2V22.667h0a1.769,1.769,0,0,1-1.745,1.745h-2.69a.193.193,0,0,0-.218.218V43.461a5.825,5.825,0,0,0,1.963.218A21.823,21.823,0,0,0,31.953.2" transform="translate(-7.451 -0.055)" fill="#00b956"/>
    <path id="Контур_2" data-name="Контур 2" d="M17.668,17.959a2.7,2.7,0,0,1-2.69-2.763,2.727,2.727,0,1,1,5.453,0,2.808,2.808,0,0,1-2.763,2.763M21.812,0a21.808,21.808,0,0,0-4.653,43.115V23.557h0A1.82,1.82,0,0,1,18.9,21.812h2.69a.193.193,0,0,0,.218-.218V0Z" fill="#00b956"/>
  </g>
  <text id="Dealers" transform="translate(53 31.697)" fill="#00b956" font-size="28" font-family="MegaFon Graphik LC ,SegoeUI-Bold, Segoe UI, -apple-system" font-weight="700"><tspan x="0" y="0">Dealers</tspan></text>
</svg>
