<svg xmlns="http://www.w3.org/2000/svg" width="13.494" height="17.481" viewBox="0 0 13.494 17.481"><defs><style>.a{fill:#34aaf2;}</style></defs><path class="a" d="M10.146,15.262A5,5,0,0,1,1.4,10.414L5.98,2.149a3.637,3.637,0,0,1,6.362,3.526l-3.709,6.69a2.273,2.273,0,0,1-3.975-2.2l3.272-5.9,1.193.661-3.273,5.9a.855.855,0,0,0,.36,1.228A.853.853,0,0,0,7.44,11.7l3.71-6.69a2.274,2.274,0,0,0-3.977-2.2l-4.58,8.265A3.636,3.636,0,0,0,8.953,14.6L13.1,7.124l1.193.66-4.145,7.479Z" transform="translate(-0.797 -0.306)"/></svg>