<svg xmlns="http://www.w3.org/2000/svg" xmlns:xlink="http://www.w3.org/1999/xlink" width="24" height="14.994" viewBox="0 0 24 14.994"><defs><style>.a{fill:none;}.b{clip-path:url(#a);}.c{clip-path:url(#b);}.d{fill:#686868;}</style><clipPath id="a"><path class="a" d="M28,16a15.78,15.78,0,0,1-1.94,1.73L27.83,20,26.2,21.16l-1.77-2.31a16.29,16.29,0,0,1-2.62,1.24l.94,2.73-1.92.59-.94-2.74A16.66,16.66,0,0,1,17,21.1v2.64H15V21.11a16.7,16.7,0,0,1-3-.45l-.86,2.52-1.92-.59.87-2.52a16.29,16.29,0,0,1-2.54-1.21L5.8,21.16,4.17,20l1.77-2.3A15.78,15.78,0,0,1,4,16l1.51-1.26a14.47,14.47,0,0,0,21,0Zm-4-5.07-1,1.81a13.7,13.7,0,0,0-7-2,13.57,13.57,0,0,0-7,2l-1-1.8a15.68,15.68,0,0,1,16,0Z"/></clipPath><clipPath id="b"><rect class="a" width="32" height="32" transform="translate(0 -0.25)"/></clipPath></defs><g class="b" transform="translate(-4 -8.746)"><g class="c"><rect class="d" width="34" height="25" transform="translate(-1 3.75)"/></g></g></svg>